<svg xmlns="http://www.w3.org/2000/svg" height="335.41" viewBox="0 0 967.856 335.408" width="967.86"><path d="M25.24 273.38c.339-60.211.403-61.949 2.572-69.75 5.371-19.319 17.874-37.764 32.193-47.493 16.359-11.116 31.656-16.007 50.062-16.007 37.354 0 69.24 22.73 80.892 57.664 16.462 49.354-14.47 100.53-66.734 110.42-7.226 1.367-27.363.687-33.97-1.147l-4.25-1.18v-18.378c0-10.108.112-18.378.25-18.378.137 0 2.725.95 5.75 2.11 12.634 4.847 27.725 4.26 39.5-1.535 9.265-4.56 14.832-9.491 20.475-18.135 6.758-10.352 8.323-16.181 7.874-29.313-.343-10.025-.623-11.287-4.044-18.207-7.887-15.96-22.074-26.64-38.652-29.101-19.639-2.915-38.9 6.395-49.464 23.91-7.504 12.442-7.156 8.894-7.476 76.158l-.287 60.388 32.787-.535c32.28-.527 32.965-.581 44.307-3.511 39.122-10.106 68.719-39.366 79.693-78.787 2.577-9.258 2.764-11.215 2.72-28.442-.04-15.828-.36-19.631-2.219-26.33-5.87-21.147-14.869-36.464-30.658-52.176-8.266-8.226-12.013-11.096-21.056-16.131-20.492-11.409-32.505-14.607-55-14.639-14.054-.02-17.277.3-26.5 2.63-18.622 4.704-38.465 15.85-50.884 28.578-13.203 13.534-22.31 28.424-27.559 45.064C.417 207.437.017 213.612.01 276.88l-.006 58.25h24.888l.348-61.75z" fill="#d14532"/><path d="m890.45 236.13.022-34.5 2.61-5.5c3.067-6.466 8.341-12.132 14.196-15.251 3.446-1.836 5.8-2.235 13.194-2.237 8.45-.002 9.315.198 14.15 3.267 5.547 3.521 9.451 8.01 12.152 13.972 1.462 3.226 1.769 8.704 2.2 39.25l.5 35.5h18l.296-33c.194-21.607-.094-35.071-.835-39-3.634-19.264-19.578-35.026-38.962-38.519-11.366-2.048-23.383.334-32.62 6.468l-5.38 3.571v-6.098l-8.75.289-8.75.289-.26 52c-.143 28.6-.038 52.58.234 53.289.363.948 2.807 1.213 9.238 1l8.745-.29.022-34.5zm-305.48 5c.499-29.423.507-29.515 3.18-35.218 5.829-12.436 18.802-21.797 32.195-23.232l6.625-.71v-17.84l-3.75.017c-10.114.047-22.962 4.45-33.1 11.344-2.942 2.001-5.53 3.638-5.75 3.638s-.4-3.392-.4-7.538v-7.54l-8.75.29-8.75.289.136 51.73c.074 28.452.405 52.432.735 53.29.489 1.275 2.115 1.508 8.864 1.27l8.266-.29zm-54-13.971v-43.971l13.25-.279 13.25-.28.287-9.25.288-9.25H530.97v-41.078l-8.75.29-8.75.289-.27 20.25-.271 20.25h-10.034l.288 9.25.287 9.25 4.75.305 4.75.304v43.28c0 23.802.3 43.578.667 43.944.366.367 4.416.667 9 .667h8.333zm261.29 28.577c-19.864-6.473-31.929-27.838-26.87-47.583 6.594-25.738 34.537-38.226 57.795-25.83 20.69 11.028 27.159 39.722 13.187 58.492-4.909 6.594-7.819 8.98-15.398 12.619-5.553 2.667-7.812 3.162-15.5 3.398-5.65.173-10.568-.235-13.214-1.097zm24.915 18.303c19.697-4.055 37.939-21.721 43.324-41.954 2.394-8.995 1.93-23.748-1.024-32.547-6.011-17.907-19.35-31.245-37.5-37.494-8.327-2.867-25.636-3.208-33.754-.665-18.355 5.75-33.219 19.769-39.26 37.029-3.01 8.598-3.714 22.993-1.571 32.11 4.752 20.22 21.63 37.636 41.708 43.036 6.474 1.741 20.778 1.99 28.077.486zm-174.9-58.95c.603-10.464 3.635-17.733 10.468-25.091 8.71-9.38 24.071-14.404 36.134-11.817 2.851.611 5.156 1.412 5.122 1.779-.062.66-46.024 39.315-50.095 42.13-2.113 1.46-2.115 1.451-1.629-7zm52.754 58.959c2.457-.566 8.25-2.802 12.873-4.968 19.178-8.988 33.122-31.676 31.968-52.016l-.309-5.438-6.979-.3c-9.89-.427-11.603.142-10.907 3.62.789 3.943-1.164 13.518-4.036 19.792-9.93 21.691-38.336 29.134-58.62 15.36-6.284-4.268-10.01-8.662-8.317-9.808 3.211-2.17 73.36-61.559 73.36-62.106 0-1.384-6.721-7.062-12.376-10.454-10.45-6.27-17.53-8.119-30.625-8-10.433.095-12.263.402-19.726 3.314-23.738 9.26-37.52 29.323-37.499 54.582.01 11.74 2.117 19.526 7.95 29.38 7.557 12.77 21.967 23.59 35.302 26.504 7.753 1.694 21.752 1.963 27.942.537zm-268.05-18.6c-28.296-10.171-36.584-43.743-16.182-65.554 18.885-20.19 53.093-14.391 65.002 11.018 2.398 5.116 2.68 6.877 2.68 16.718 0 9.989-.254 11.517-2.763 16.624-4.31 8.774-9.815 14.311-18.495 18.604-6.936 3.43-8.449 3.792-16.685 3.99-6.297.15-10.428-.276-13.557-1.4zm28.101 17.865c6.747-1.87 18.609-7.922 20.869-10.645 2.12-2.553 2.906-1.77 3.225 3.214l.305 4.75h18v-31c0-33.972-.26-36.06-5.986-48-6.468-13.487-19.764-24.87-34.731-29.73-9.131-2.966-24.846-2.977-34.282-.025-31.432 9.835-48.764 43.691-38.085 74.397 6.177 17.763 21.014 31.821 39.029 36.98 8.332 2.386 23.164 2.414 31.657.059zM311.9 257.049c-21.502-2.382-38.108-24.889-33.98-46.056 7.514-38.537 58.462-45.298 75.768-10.054 2.546 5.185 2.795 6.673 2.795 16.692s-.249 11.508-2.795 16.692c-7.918 16.124-23.735 24.726-41.788 22.726zm-34.917 27.466v-26.616l3.786 3.42c9.75 8.809 23.405 14.037 36.74 14.066 19.935.043 38.215-9.867 48.84-26.477 9.18-14.351 11.601-33.36 6.254-49.104-5.13-15.108-14.671-26.385-28.222-33.36-10.028-5.162-16.596-6.719-28.007-6.64-15.733.108-29.02 5.791-40.392 17.275-7.643 7.718-12.292 15.964-15.025 26.649-1.838 7.184-1.975 11.204-1.975 57.564v49.84h18z" fill="#fffffe"/><g fill="#fffffe"><path d="M8.15 7.81h7.813v23.438H8.15V7.81zM39.4 39.06h7.813v23.438H39.4V39.06zM15.962 62.498H39.4v7.813H15.962v-7.813zM8.15 54.686h7.812v7.812H8.15v-7.812zm7.812-23.438H39.4v7.812H15.962v-7.813zM39.4 7.81h7.813v7.812H39.4V7.81zM15.962-.003H39.4V7.81H15.962V-.003zM115.48 15.62h7.813v46.875h-7.813V15.62zM92.042 62.495h23.438v7.813H92.042v-7.813zM84.23 15.62h7.812v46.875H84.23V15.62zM191.57 23.43h7.813v39.062h-7.813V23.43zm-31.25-7.812h31.25v7.812h-23.438v39.062h23.438v7.813h-23.438v15.624h-7.812V15.618zM267.65 23.43h7.813v39.062h-7.813V23.43zm-31.25-7.812h31.25v7.812h-23.438v39.062h23.438v7.813h-23.438v15.624H236.4V15.618zM343.73 23.43h7.813v39.062h-7.813V23.43zm-23.438 39.062h23.438v7.813h-23.438v-7.813zM312.48 23.43h7.812v39.062h-7.812V23.43zm7.812-7.812h23.438v7.812h-23.438v-7.812zM412 15.62h15.625v7.813H412V15.62zm-7.813 7.813H412v7.812h-7.813v-7.812zm-15.625-7.813h7.813v15.625h7.813v7.813h-7.813v31.25h-7.813V15.619zM472.46 7.81h7.813v7.813h15.625v7.812h-15.625v39.062h-7.813V23.435h-7.812v-7.812h7.812V7.81zm7.813 54.688h23.438v7.813h-23.438v-7.813zM648.05 15.62h7.813v46.875h-7.813V15.62zm-23.438 46.875h23.438v7.813h-23.438v-7.813zm-7.813-46.875h7.813v46.875h-7.813V15.62zM692.95 23.43h7.813v15.625h-7.813V23.43zm31.25 23.438h7.813v15.625H724.2V46.868zm-23.438 15.625H724.2v7.813h-23.438v-7.813zm-7.812-7.812h7.812v7.812h-7.812v-7.812zm7.812-15.625H724.2v7.812h-23.438v-7.812zM724.2 23.43h7.813v7.812H724.2v-7.812zm-23.438-7.813H724.2v7.813h-23.438v-7.813zM876.35 23.43h7.813v39.062h-7.813V23.43zm-23.438 39.062h23.438v7.813h-23.438v-7.813zM845.1 23.43h7.812v39.062H845.1V23.43zm7.812-7.812h23.438v7.812h-23.438v-7.812zM952.35 23.43h7.813v46.875h-7.813V23.43zm-31.25-7.812h31.25v7.812h-23.438v46.875H921.1V15.617z"/></g></svg>